<?xml version="1.0" encoding="UTF-8" standalone="no"?>
<!-- Generator: Adobe Illustrator 27.2.0, SVG Export Plug-In . SVG Version: 6.00 Build 0)  -->

<svg xmlns:dc="http://purl.org/dc/elements/1.1/" xmlns:cc="http://creativecommons.org/ns#" xmlns:rdf="http://www.w3.org/1999/02/22-rdf-syntax-ns#" xmlns:svg="http://www.w3.org/2000/svg" xmlns="http://www.w3.org/2000/svg" xmlns:sodipodi="http://sodipodi.sourceforge.net/DTD/sodipodi-0.dtd" xmlns:inkscape="http://www.inkscape.org/namespaces/inkscape" version="1.1" id="Ebene_1" x="0px" y="0px" viewBox="0 0 64 64" style="enable-background:new 0 0 64 64;" xml:space="preserve" sodipodi:docname="contentdroplets-pdf-link-icon.svg" inkscape:version="0.92.5 (2060ec1f9f, 2020-04-08)"><metadata id="metadata17"><rdf:RDF><cc:Work rdf:about=""><dc:format>image/svg+xml</dc:format><dc:type rdf:resource="http://purl.org/dc/dcmitype/StillImage" /></cc:Work></rdf:RDF></metadata><defs id="defs15" /><sodipodi:namedview pagecolor="#ffffff" bordercolor="#666666" borderopacity="1" objecttolerance="10" gridtolerance="10" guidetolerance="10" inkscape:pageopacity="0" inkscape:pageshadow="2" inkscape:window-width="1920" inkscape:window-height="1009" id="namedview13" showgrid="false" inkscape:zoom="10" inkscape:cx="24.315127" inkscape:cy="37.925112" inkscape:window-x="0" inkscape:window-y="0" inkscape:window-maximized="1" inkscape:current-layer="Ebene_1" />
<style type="text/css" id="style2">
	.st0{fill:#FFFFFF;}
	.st1{fill:none;}
	.st2{fill:#3E5389;}
</style>

<path sodipodi:nodetypes="sssssssss" inkscape:connector-curvature="0" id="rect858-7-5" d="m 19.589238,13.45493 19.253205,-0.06804 c 1.273769,-0.0037 11.319291,9.099092 11.300672,11.607008 l -0.170183,22.92514 c -0.01856,2.507914 -2.565593,4.527077 -5.75245,4.527077 H 22.414405 c -3.186857,0 -5.75245,-2.01909 -5.75245,-4.527077 v -29.93699 c 0,-2.507988 -0.259554,-4.515797 2.927283,-4.527077 z" style="opacity:1;fill:white;fill-opacity:1;stroke:none;stroke-width:2.82000041;stroke-linecap:round;stroke-linejoin:round;stroke-miterlimit:4;stroke-dasharray:none;stroke-dashoffset:74.26771545;stroke-opacity:1;paint-order:fill markers stroke" /><rect x="35.3" y="-2.3" class="st1" width="42.8" height="51.5" id="rect6" />
<g id="g10">
	<path class="st2" d="M49.9,20.9c0.4,0.4,0.8,1,1.1,1.8c0.3,0.7,0.5,1.4,0.5,2v26.9c0,0.6-0.2,1.2-0.7,1.6c-0.4,0.4-1,0.7-1.6,0.7   H17.8c-0.6,0-1.2-0.2-1.6-0.7c-0.4-0.4-0.7-1-0.7-1.6V14.3c0-0.6,0.2-1.2,0.7-1.6c0.4-0.4,1-0.7,1.6-0.7h20.9c0.6,0,1.3,0.2,2,0.5   c0.8,0.3,1.4,0.7,1.8,1.1L49.9,20.9z M48.5,27h-9.7c-0.6,0-1.2-0.2-1.6-0.7c-0.4-0.4-0.7-1-0.7-1.6V15h-18v35.9h29.9V27z    M38.5,38.3c0.9-0.1,1.8-0.2,2.7-0.2c2.3,0,3.7,0.4,4.1,1.1c0.2,0.4,0.3,0.8,0,1.2l0,0l0,0v0c-0.1,0.6-0.6,0.9-1.6,0.9   c-0.8,0-1.7-0.1-2.7-0.4c-1-0.3-2-0.7-3-1.2c-3.5,0.4-6.5,1-9.2,1.9c-2.4,4.1-4.3,6.1-5.7,6.1c-0.2,0-0.4-0.1-0.7-0.2l-0.5-0.3   c0,0-0.1-0.1-0.2-0.1c-0.1-0.2-0.2-0.4-0.1-0.8c0.1-0.6,0.6-1.3,1.3-2.2c0.7-0.8,1.8-1.5,3.1-2.2c0.2-0.1,0.4-0.1,0.5,0.2   c0.1,0,0.1,0.1,0.1,0.1c0.8-1.3,1.6-2.9,2.5-4.6c1.1-2.1,1.9-4.1,2.4-6.1c-0.4-1.3-0.6-2.5-0.7-3.8c-0.1-1.2-0.1-2.2,0.1-2.9   c0.2-0.6,0.5-0.9,1-0.9h0.5c0.4,0,0.6,0.1,0.8,0.3c0.3,0.3,0.3,0.9,0.2,1.6c0,0.1-0.1,0.2-0.1,0.2c0,0,0,0.1,0,0.2V27   c0,1.9-0.1,3.4-0.3,4.5c0.9,2.6,2,4.4,3.4,5.6C37,37.4,37.7,37.9,38.5,38.3z M23,46.7c0.8-0.4,1.9-1.6,3.2-3.7   c-0.8,0.6-1.5,1.3-2,2S23.2,46.2,23,46.7z M36.1,38.7c-0.1,0-0.2-0.1-0.3-0.2c-0.2-0.1-0.3-0.2-0.4-0.3c-1.2-1.1-2.2-2.4-3-4.1   c-0.4,1.3-1,2.9-1.9,4.6c-0.5,0.9-0.8,1.5-1.1,1.9C31.5,39.8,33.7,39.1,36.1,38.7z M32.3,28.2c0-0.1,0.1-0.4,0.2-1   c0-0.1,0.1-0.4,0.2-1c0-0.1,0.1-0.1,0.1-0.2v0l0,0c0-0.4-0.1-0.6-0.3-0.9c0,0,0,0,0,0v0C32.1,25.8,32.1,26.8,32.3,28.2z M39.5,15.2   V24h8.8c-0.2-0.5-0.3-0.8-0.5-1l-7.3-7.3C40.3,15.5,40,15.4,39.5,15.2z M41.2,39.7c1.2,0.4,2.2,0.7,2.9,0.7c0.2,0,0.4,0,0.4,0   c0,0,0-0.1-0.1-0.1C44.2,39.8,43.1,39.7,41.2,39.7z" id="path8" style="stroke:none;stroke-opacity:1;fill:#bd1d1d;fill-opacity:1" />
</g>
</svg>