<?xml version="1.0" encoding="UTF-8" standalone="no"?>
<!-- Created with Inkscape (http://www.inkscape.org/) -->

<svg xmlns:dc="http://purl.org/dc/elements/1.1/" xmlns:cc="http://creativecommons.org/ns#" xmlns:rdf="http://www.w3.org/1999/02/22-rdf-syntax-ns#" xmlns:svg="http://www.w3.org/2000/svg" xmlns="http://www.w3.org/2000/svg" xmlns:sodipodi="http://sodipodi.sourceforge.net/DTD/sodipodi-0.dtd" xmlns:inkscape="http://www.inkscape.org/namespaces/inkscape" width="64" height="64" viewBox="0 0 16.933333 16.933333" version="1.1" id="svg8" inkscape:version="0.92.5 (2060ec1f9f, 2020-04-08)" sodipodi:docname="contentdroplets-map-icon.svg">
  <defs id="defs2">
    <marker inkscape:stockid="Arrow1Lstart" orient="auto" refY="0.0" refX="0.0" id="marker1178" style="overflow:visible" inkscape:isstock="true">
      <path id="path1176" d="M 0.0,0.0 L 5.0,-5.0 L -12.5,0.0 L 5.0,5.0 L 0.0,0.0 z " style="fill-rule:evenodd;stroke:black;stroke-width:1pt;stroke-opacity:1" transform="scale(0.8) translate(12.5,0)" />
    </marker>
    <marker inkscape:stockid="Arrow1Lstart" orient="auto" refY="0.0" refX="0.0" id="Arrow1Lstart" style="overflow:visible" inkscape:isstock="true">
      <path id="path900" d="M 0.0,0.0 L 5.0,-5.0 L -12.5,0.0 L 5.0,5.0 L 0.0,0.0 z " style="fill-rule:evenodd;stroke:black;stroke-width:1pt;stroke-opacity:1" transform="scale(0.8) translate(12.5,0)" />
    </marker>
  </defs>
  <sodipodi:namedview id="base" pagecolor="#ffffff" bordercolor="#666666" borderopacity="1.0" inkscape:pageopacity="0.0" inkscape:pageshadow="2" inkscape:zoom="14.142136" inkscape:cx="12.83278" inkscape:cy="30.134137" inkscape:document-units="px" inkscape:current-layer="g1024" showgrid="false" units="px" width="64px" inkscape:pagecheckerboard="false" inkscape:snap-text-baseline="false" showguides="true" inkscape:guide-bbox="true" inkscape:window-width="1920" inkscape:window-height="1009" inkscape:window-x="0" inkscape:window-y="0" inkscape:window-maximized="1">
    <sodipodi:guide position="8.4808406,22.749442" orientation="1,0" id="guide890" inkscape:locked="false" />
    <sodipodi:guide position="1.905,8.4666665" orientation="0,1" id="guide892" inkscape:locked="false" />
    <sodipodi:guide position="3.5671502,6.1539247" orientation="1,0" id="guide894" inkscape:locked="false" />
    <sodipodi:guide position="13.429966,4.3703496" orientation="1,0" id="guide896" inkscape:locked="false" />
  </sodipodi:namedview>
  <metadata id="metadata5">
    <rdf:RDF>
      <cc:Work rdf:about="">
        <dc:format>image/svg+xml</dc:format>
        <dc:type rdf:resource="http://purl.org/dc/dcmitype/StillImage" />
        <dc:title />
      </cc:Work>
    </rdf:RDF>
  </metadata>
  <g inkscape:label="Ebene 1" inkscape:groupmode="layer" id="layer1" transform="translate(0,-280.06666)">
    <g id="g1814" transform="matrix(1.2369051,0,0,1.0240909,-4.1326763,-7.00489)" style="stroke-width:0.88851058;stroke:#f28c00;stroke-opacity:1">
      <g id="g1801" style="stroke-width:0.88851058;stroke:#f28c00;stroke-opacity:1" />
      <g id="g1024">
        <path inkscape:connector-curvature="0" id="path886" d="M 2.4722431,287.8126 Z" style="fill:none;stroke:#f28c00;stroke-width:0.26458332px;stroke-linecap:butt;stroke-linejoin:miter;stroke-opacity:1" transform="matrix(0.80846945,0,0,0.97647581,3.3411426,6.8401007)" />
        <path style="color:black;font-style:normal;font-variant:normal;font-weight:normal;font-stretch:normal;font-size:medium;line-height:normal;font-family:sans-serif;font-variant-ligatures:normal;font-variant-position:normal;font-variant-caps:normal;font-variant-numeric:normal;font-variant-alternates:normal;font-feature-settings:normal;text-indent:0;text-align:start;text-decoration:none;text-decoration-line:none;text-decoration-style:solid;text-decoration-color:black;letter-spacing:normal;word-spacing:normal;text-transform:none;writing-mode:lr-tb;direction:ltr;text-orientation:mixed;dominant-baseline:auto;baseline-shift:baseline;text-anchor:start;white-space:normal;shape-padding:0;clip-rule:nonzero;display:inline;overflow:visible;visibility:visible;opacity:1;isolation:auto;mix-blend-mode:normal;color-interpolation:sRGB;color-interpolation-filters:linearRGB;solid-color:black;solid-opacity:1;vector-effect:none;fill:#f28c00;fill-opacity:1;fill-rule:nonzero;stroke:none;stroke-width:2.4000001;stroke-linecap:round;stroke-linejoin:miter;stroke-miterlimit:4;stroke-dasharray:none;stroke-dashoffset:0;stroke-opacity:1;color-rendering:auto;image-rendering:auto;shape-rendering:auto;text-rendering:auto;enable-background:accumulate" d="M 25.869141 8.9277344 A 1.3189357 1.0920078 0 0 0 25.732422 8.9355469 A 1.3189357 1.0920078 0 0 0 25.169922 9.1074219 L 13.103516 13.5625 A 1.3189357 1.0920078 0 0 0 12.291016 14.144531 A 1.3189357 1.0920078 0 0 0 12.242188 14.238281 A 1.3201782 1.0930365 0 0 0 12.240234 14.244141 A 1.3189357 1.0920078 0 0 0 12.207031 14.333984 A 1.3201782 1.0930365 0 0 0 12.166016 14.710938 L 12.166016 51.238281 A 1.3189357 1.0920078 0 0 0 14.019531 52.585938 L 25.941406 48.183594 A 1.3189357 1.0920078 0 0 0 26.085938 48.171875 L 37.351562 52.332031 A 1.3189357 1.0920078 0 0 0 38.261719 52.708984 A 1.3189357 1.0920078 0 0 0 39.492188 52.777344 A 1.3201784 1.0930367 0 0 0 39.636719 52.722656 L 51.291016 48.480469 A 1.3193855 1.0923802 0 0 0 51.408203 48.431641 A 1.3189357 1.0920078 0 0 0 51.421875 48.425781 A 1.3193855 1.0923802 0 0 0 51.443359 48.414062 A 1.3189357 1.0920078 0 0 0 52.076172 47.320312 L 52.076172 10.720703 A 1.3189357 1.0920078 0 0 0 51.421875 9.5546875 A 1.3189357 1.0920078 0 0 0 50.742188 9.4042969 A 1.3189357 1.0920078 0 0 0 50.011719 9.5957031 L 39.109375 13.621094 L 27.158203 9.2070312 A 1.3189357 1.0920078 0 0 0 26.597656 9.1015625 A 1.3189357 1.0920078 0 0 0 26.585938 9.0957031 A 1.3189357 1.0920078 0 0 0 25.869141 8.9277344 z M 27.203125 11.611328 L 37.037109 15.25 L 37.037109 49.822266 L 27.203125 46.189453 L 27.203125 11.611328 z M 24.574219 11.720703 L 24.574219 46.294922 L 14.804688 49.908203 L 14.804688 15.330078 L 24.574219 11.720703 z M 49.4375 12.201172 L 49.4375 46.773438 L 39.666016 50.330078 L 39.666016 15.806641 L 49.4375 12.201172 z " transform="matrix(0.21390754,0,0,0.25835922,3.3411426,280.31843)" id="path857" />
        <path style="opacity:1;fill:white;fill-opacity:1;stroke:none;stroke-width:0.68174672;stroke-linecap:round;stroke-linejoin:round;stroke-miterlimit:4;stroke-dasharray:none;stroke-dashoffset:74.26771545;stroke-opacity:1;paint-order:fill markers stroke" d="m 6.507977,284.2791 2.0897763,-0.93252 5e-7,8.93261 -2.0897768,0.93348 z" id="rect850" inkscape:connector-curvature="0" sodipodi:nodetypes="ccccc" />
        <path style="opacity:1;fill:white;fill-opacity:1;stroke:none;stroke-width:0.68174672;stroke-linecap:round;stroke-linejoin:round;stroke-miterlimit:4;stroke-dasharray:none;stroke-dashoffset:74.26771545;stroke-opacity:1;paint-order:fill markers stroke" d="m 11.82642,284.40269 2.089776,-0.93252 1e-6,8.93261 -2.089777,0.93348 z" id="rect850-3" inkscape:connector-curvature="0" sodipodi:nodetypes="ccccc" />
        <path style="opacity:1;fill:white;fill-opacity:1;stroke:none;stroke-width:0.68174672;stroke-linecap:round;stroke-linejoin:round;stroke-miterlimit:4;stroke-dasharray:none;stroke-dashoffset:74.26771545;stroke-opacity:1;paint-order:fill markers stroke" d="m 11.263659,284.25841 -2.0897755,-0.93252 -1e-6,8.93261 2.0897765,0.93348 z" id="rect850-3-6" inkscape:connector-curvature="0" sodipodi:nodetypes="ccccc" />
      </g>
    </g>
  </g>
  <style id="style817" type="text/css">
	.st0{fill:#FFFFFF;}
	.st1{fill:none;}
	.st2{fill:#3E5389;}
</style>
</svg>
