<?xml version="1.0" encoding="UTF-8" standalone="no"?>

<svg
   version="1.1"
   id="Ebene_1"
   x="0px"
   y="0px"
   viewBox="0 0 183 50"
   xml:space="preserve"
   sodipodi:docname="BlueSpice-5_Logo.svg"
   width="183"
   height="50"
   inkscape:version="1.1.2 (0a00cf5339, 2022-02-04)"
   xmlns:inkscape="http://www.inkscape.org/namespaces/inkscape"
   xmlns:sodipodi="http://sodipodi.sourceforge.net/DTD/sodipodi-0.dtd"
   xmlns:xlink="http://www.w3.org/1999/xlink"
   xmlns="http://www.w3.org/2000/svg"
   xmlns:svg="http://www.w3.org/2000/svg"><defs
   id="defs35" /><sodipodi:namedview
   id="namedview33"
   pagecolor="#ffffff"
   bordercolor="#666666"
   borderopacity="1.0"
   inkscape:pageshadow="2"
   inkscape:pageopacity="0.0"
   inkscape:pagecheckerboard="0"
   showgrid="false"
   inkscape:zoom="5.12"
   inkscape:cx="208.10547"
   inkscape:cy="23.632813"
   inkscape:window-width="3440"
   inkscape:window-height="1364"
   inkscape:window-x="1920"
   inkscape:window-y="0"
   inkscape:window-maximized="1"
   inkscape:current-layer="Ebene_1" />
<style
   type="text/css"
   id="style2">
	.st0{fill:#BD1D1D;}
	.st1{fill:none;stroke:#2B80EA;stroke-width:10;stroke-miterlimit:10;}
</style>



<g
   id="g868"
   transform="matrix(0.12726893,0,0,0.12726893,-0.50907294,6.6160031)"><g
     id="g12">
	<defs
   id="defs5">
		<path
   id="SVGID_1_"
   d="m 95.6,211.5 c -10.5,10 -24.7,14.9 -42.4,14.9 H 4 V 47 h 35.4 c 14.2,0 25.2,1.7 32.8,5.1 7.6,3.4 13.7,8.6 18.1,15.5 4.4,7 6.6,14.8 6.6,23.3 0,8 -1.9,15.2 -5.8,21.8 -3.9,6.5 -9.6,11.8 -17.1,15.9 9.3,3.2 16.5,6.9 21.5,11.2 5,4.3 8.9,9.4 11.7,15.5 2.8,6.1 4.2,12.6 4.2,19.7 0,14.3 -5.2,26.5 -15.8,36.5 z M 78.4,90.9 c 0,-8.2 -2.9,-14.7 -8.6,-19.3 -5.7,-4.7 -14.9,-7 -27.4,-7 H 21.6 V 122 h 10.3 c 12.5,0 21.6,-1.2 27.5,-3.5 5.9,-2.3 10.5,-6 13.9,-11 3.4,-4.9 5.1,-10.5 5.1,-16.6 z m 6.7,63.6 c -5.2,-5.9 -12.4,-10 -21.5,-12.2 -6.1,-1.5 -16.7,-2.2 -31.9,-2.2 H 21.6 v 68.8 h 22.2 c 13.1,0 22.7,-1.3 28.8,-3.8 6.1,-2.6 11,-6.6 14.7,-12 3.7,-5.4 5.6,-11.3 5.6,-17.7 0,-8.1 -2.6,-15 -7.8,-20.9 z m 62.7,71.9 V 42.5 h 17.1 v 183.9 z m 166.3,-26.2 c -4.3,9.3 -10.7,16.5 -19.3,21.8 -8.6,5.2 -19.3,7.9 -32.3,7.9 -12.9,0 -23.7,-2.6 -32.4,-7.9 -8.7,-5.2 -15.1,-12.6 -19.4,-21.9 -4.3,-9.4 -6.4,-23.5 -6.4,-42.4 v -64 h 17.1 v 61.9 c 0,15.1 0.8,25.5 2.4,31.2 2.4,8.1 7.1,14.5 14,19.3 6.9,4.7 15.1,7.1 24.6,7.1 9.5,0 17.6,-2.3 24.2,-6.9 6.6,-4.6 11.2,-10.6 13.7,-18.1 1.7,-5.1 2.6,-16 2.6,-32.6 V 93.7 h 17.4 v 65.1 c 0.2,18.3 -2,32.1 -6.2,41.4 z m 61.6,-38.8 c 0.3,15.4 5.2,28 14.8,37.9 9.5,9.9 21.3,14.8 35.3,14.8 6.8,0 13.3,-1.2 19.7,-3.5 6.4,-2.3 11.8,-5.5 16.3,-9.4 4.5,-3.9 9.3,-10.2 14.5,-18.8 l 14.4,7.6 c -4.7,9.3 -10.2,16.7 -16.4,22.4 -6.2,5.7 -13.1,10 -20.9,13 -7.7,3 -16.5,4.4 -26.2,4.4 -21.6,0 -38.6,-7.1 -50.8,-21.3 -12.2,-14.2 -18.3,-30.2 -18.3,-48.1 0,-16.8 5.2,-31.8 15.5,-45 13.1,-16.7 30.6,-25.1 52.6,-25.1 22.6,0 40.7,8.6 54.2,25.7 9.6,12.1 14.5,27.2 14.6,45.4 z m 90.7,-36.6 c -4.4,-5.4 -10.1,-9.8 -17.3,-13.2 -7.2,-3.3 -14.7,-5 -22.6,-5 -13,0 -24.2,4.2 -33.6,12.6 -6.8,6.1 -12,15.2 -15.5,27.4 h 98.9 c -2.2,-9 -5.6,-16.3 -9.9,-21.8 z" />
	</defs>
	<use
   xlink:href="#SVGID_1_"
   style="overflow:visible;fill:#40558a"
   id="use7"
   x="0"
   y="0"
   width="100%"
   height="100%" />
	<clipPath
   id="SVGID_00000041272219341796891790000007291812763995365030_">
		<use
   xlink:href="#SVGID_1_"
   style="overflow:visible"
   id="use9"
   x="0"
   y="0"
   width="100%"
   height="100%" />
	</clipPath>
</g><g
     id="g22">
	<defs
   id="defs15">
		<path
   id="SVGID_00000042711015923239388870000016365870718898861461_"
   d="m 600,63.5 c -4.8,-2.8 -9.9,-4.3 -15.5,-4.3 -7.2,0 -13.1,2.2 -17.7,6.6 -4.6,4.4 -6.9,9.8 -6.9,16.2 0,3.9 0.8,7.7 2.4,11.3 1.6,3.7 4.6,7.6 8.9,11.9 2.4,2.3 10.1,8.3 23.2,17.9 15.5,11.5 26.2,21.7 31.9,30.6 5.8,8.9 8.7,17.9 8.7,26.9 0,13 -4.9,24.3 -14.8,33.9 -9.9,9.6 -21.9,14.4 -36,14.4 -10.9,0 -20.8,-2.9 -29.6,-8.7 -8.9,-5.8 -17,-15.5 -24.5,-29.2 l 15.2,-9.1 c 10.7,19.8 23.1,29.6 37.2,29.6 6,0 11.7,-1.4 16.9,-4.2 5.3,-2.8 9.3,-6.6 12.1,-11.3 2.8,-4.7 4.1,-9.7 4.1,-15 0,-6 -2,-11.9 -6.1,-17.7 -5.6,-8 -15.8,-17.6 -30.7,-28.8 -15,-11.3 -24.3,-19.5 -27.9,-24.5 -6.3,-8.5 -9.5,-17.6 -9.5,-27.4 0,-7.8 1.9,-14.9 5.6,-21.3 3.7,-6.4 9,-11.5 15.8,-15.2 6.8,-3.7 14.2,-5.5 22.1,-5.5 8.5,0 16.4,2.1 23.7,6.3 7.4,4.2 15.1,11.9 23.3,23.1 L 617.3,81.1 C 610.5,72.2 604.8,66.4 600,63.5 Z m 188.5,144.1 c -13.3,13.6 -29.3,20.4 -48,20.4 -10.6,0 -20.3,-2.2 -29.1,-6.6 -8.9,-4.4 -16.9,-10.9 -24,-19.6 v 71.3 H 670.3 V 91.9 h 17.1 v 24.4 c 6.7,-9.3 14.5,-16.2 23.3,-20.8 8.8,-4.6 18.6,-7 29.4,-7 18.8,0 35,6.8 48.4,20.4 13.4,13.6 20.1,29.9 20.1,49 -0.2,19.5 -6.8,36.1 -20.1,49.7 z m -4.5,-76 c -4.7,-8.4 -11.1,-15 -19.2,-19.7 -8,-4.7 -16.8,-7 -26.3,-7 -14.8,0 -27.2,5.2 -37.3,15.5 -10.1,10.3 -15.1,23.1 -15.1,38.5 0,10.1 2.2,19.1 6.7,27.2 4.5,8 10.9,14.4 19.3,19.1 8.4,4.7 17.3,7.1 26.6,7.1 9.2,0 17.8,-2.4 25.8,-7.1 8.1,-4.7 14.5,-11.4 19.3,-19.9 4.8,-8.5 7.2,-17.5 7.2,-26.8 0.1,-9.5 -2.3,-18.4 -7,-26.9 z m 53.8,93 V 91.9 h 17.1 v 132.7 z m 119.9,-120 c -16.2,0 -29.6,5.2 -40.2,15.6 -10.7,10.4 -16,23 -16,37.9 0,9.7 2.5,18.8 7.4,27.3 4.9,8.5 11.6,15.1 20.2,19.8 8.6,4.7 18.2,7.1 28.8,7.1 19.5,0 35.4,-7.8 47.7,-23.3 l 13.5,8.9 c -6.3,9.6 -14.9,17 -25.5,22.2 -10.7,5.3 -22.9,7.9 -36.5,7.9 -21,0 -38.4,-6.7 -52.2,-20 -13.8,-13.3 -20.7,-29.5 -20.7,-48.6 0,-12.8 3.2,-24.8 9.7,-35.8 6.5,-11 15.3,-19.6 26.6,-25.8 11.3,-6.2 23.9,-9.3 37.9,-9.3 8.8,0 17.3,1.3 25.4,4 8.2,2.7 15.1,6.2 20.8,10.5 5.7,4.3 10.5,9.8 14.5,16.5 l -13.5,8.4 c -11.7,-15.5 -27.7,-23.3 -47.9,-23.3 z m 105.3,55 c 0.3,15.4 5.2,28 14.8,37.9 9.5,9.9 21.3,14.8 35.3,14.8 6.8,0 13.3,-1.2 19.7,-3.5 6.4,-2.3 11.8,-5.5 16.3,-9.4 4.5,-3.9 9.3,-10.2 14.5,-18.8 l 14.4,7.6 c -4.7,9.3 -10.2,16.7 -16.4,22.4 -6.2,5.7 -13.1,10 -20.9,13 -7.7,3 -16.5,4.5 -26.2,4.5 -21.6,0 -38.6,-7.1 -50.8,-21.3 -12.2,-14.2 -18.3,-30.2 -18.3,-48.1 0,-16.8 5.2,-31.8 15.5,-45 13.1,-16.7 30.6,-25.1 52.6,-25.1 22.6,0 40.7,8.6 54.2,25.7 9.6,12.1 14.5,27.2 14.6,45.4 H 1063 Z m 90.6,-36.6 c -4.4,-5.4 -10.1,-9.8 -17.3,-13.2 -7.2,-3.3 -14.7,-5 -22.6,-5 -13,0 -24.2,4.2 -33.6,12.6 -6.8,6.1 -12,15.2 -15.5,27.4 h 98.9 c -2.2,-9.1 -5.5,-16.3 -9.9,-21.8 z" />
	</defs>
	<use
   xlink:href="#SVGID_00000042711015923239388870000016365870718898861461_"
   style="overflow:visible;fill:#40558a"
   id="use17"
   x="0"
   y="0"
   width="100%"
   height="100%" />
	<clipPath
   id="SVGID_00000044865764192868667090000018301479174117957031_">
		<use
   xlink:href="#SVGID_00000042711015923239388870000016365870718898861461_"
   style="overflow:visible"
   id="use19"
   x="0"
   y="0"
   width="100%"
   height="100%" />
	</clipPath>
</g><g
     id="g26">
	<polygon
   class="st0"
   points="855.7,63 891,2 835.4,58 838,67.8 "
   id="polygon24" />
</g><g
     id="g30">
	<path
   class="st1"
   d="m 1356.1,102.9 c 15.4,0 29.2,3.6 41.6,10.7 12.4,7.1 22,17.2 28.9,30.3 6.9,13.1 10.3,28.1 10.3,45.2 0,29.9 -9,52.8 -27,68.8 -18,16 -45.2,24 -81.7,24 -31.2,0 -56.7,-4.8 -76.5,-14.5 v -59.3 c 10.6,4.9 22.6,8.9 36,12.1 13.4,3.2 24.9,4.8 34.5,4.8 13.4,0 23.7,-2.8 30.9,-8.5 7.2,-5.7 10.8,-14.1 10.8,-25.2 0,-10.2 -3.7,-18.2 -11,-24 -7.3,-5.7 -18.4,-8.6 -33.3,-8.6 -11.3,0 -23.6,2.1 -36.8,6.4 l -26.5,-13.2 10.1,-141.3 H 1419 v 60.2 h -91.1 l -3.3,35.3 c 9.5,-1.8 16.3,-2.8 20.3,-3 4.1,-0.1 7.8,-0.2 11.2,-0.2 z"
   id="path28" />
</g></g>
</svg>
